<mxfile host="65bd71144e">
    <diagram id="9xawf11EgOydYplsZZsw" name="Page-1">
        <mxGraphModel dx="906" dy="444" grid="0" gridSize="10" guides="1" tooltips="1" connect="1" arrows="1" fold="1" page="1" pageScale="1" pageWidth="780" pageHeight="320" math="0" shadow="0">
            <root>
                <mxCell id="0"/>
                <mxCell id="1" parent="0"/>
                <mxCell id="3" value="&lt;b&gt;TERMINAL (&lt;/b&gt;&lt;u&gt;cod_terminal&lt;/u&gt;, ciudad_terminal, nombre_terminal, dirección_terminal&lt;b&gt;)&lt;/b&gt;" style="text;html=1;align=center;verticalAlign=middle;resizable=0;points=[];autosize=1;strokeColor=none;fillColor=none;" parent="1" vertex="1">
                    <mxGeometry x="40" y="103" width="460" height="30" as="geometry"/>
                </mxCell>
                <mxCell id="4" value="&lt;b&gt;VEHICULO (&lt;/b&gt;&lt;u&gt;cod_vehículo&lt;/u&gt;, cod_terminal, placa_vehículo, capacidad&lt;span style=&quot;color: rgb(0, 0, 0);&quot;&gt;_vehículo, compañ&lt;/span&gt;&lt;span style=&quot;color: rgb(0, 0, 0);&quot;&gt;í&lt;/span&gt;&lt;span style=&quot;color: rgb(0, 0, 0);&quot;&gt;a&lt;/span&gt;&lt;span style=&quot;color: rgb(0, 0, 0);&quot;&gt;_vehículo&lt;/span&gt;&lt;b&gt;)&lt;/b&gt;" style="text;html=1;align=center;verticalAlign=middle;resizable=0;points=[];autosize=1;strokeColor=none;fillColor=none;" parent="1" vertex="1">
                    <mxGeometry x="40" y="143" width="550" height="30" as="geometry"/>
                </mxCell>
                <mxCell id="5" value="&lt;b&gt;VIAJE(&lt;/b&gt;&lt;u&gt;cod_viaje&lt;/u&gt;, cod_conductor, cod_vehiculo, cod_terminal, fecha_viaje, hora_viaje, ciudad_destino,precio_viaje&lt;b&gt;)&lt;/b&gt;" style="text;html=1;align=center;verticalAlign=middle;resizable=0;points=[];autosize=1;strokeColor=none;fillColor=none;" parent="1" vertex="1">
                    <mxGeometry x="40" y="183" width="640" height="30" as="geometry"/>
                </mxCell>
                <mxCell id="6" value="&lt;b&gt;CONDUCTOR(&lt;/b&gt;&lt;u&gt;cod_conductor&lt;/u&gt;, cod_terminal, nombre_conductor, apellido&lt;span style=&quot;color: rgb(0, 0, 0);&quot;&gt;_conductor&lt;/span&gt;, licencia_conductor&lt;b&gt;)&lt;/b&gt;" style="text;html=1;align=center;verticalAlign=middle;resizable=0;points=[];autosize=1;strokeColor=none;fillColor=none;" parent="1" vertex="1">
                    <mxGeometry x="45" y="225" width="576" height="26" as="geometry"/>
                </mxCell>
                <mxCell id="7" value="&lt;b&gt;PASAJEROS(&lt;/b&gt;&lt;u&gt;cod_pasajero&lt;/u&gt;, cod_viaje, nombre_pasajero, apellido&lt;span style=&quot;color: rgb(0, 0, 0);&quot;&gt;_pasajero,&amp;nbsp;&lt;/span&gt;&lt;span style=&quot;color: rgb(0, 0, 0); text-wrap-mode: wrap;&quot;&gt;teléfono_pasajero,&amp;nbsp;&lt;/span&gt;&lt;span style=&quot;color: rgb(0, 0, 0); text-wrap-mode: wrap;&quot;&gt;cédula_pasajero,&lt;/span&gt;" style="text;html=1;align=center;verticalAlign=middle;resizable=0;points=[];autosize=1;strokeColor=none;fillColor=none;" parent="1" vertex="1">
                    <mxGeometry x="45" y="263" width="630" height="30" as="geometry"/>
                </mxCell>
                <mxCell id="9" value="&lt;h2&gt;&lt;b&gt;&lt;font style=&quot;font-size: 22px;&quot;&gt;Sistema de Gestión de Terminales Terrestres&lt;/font&gt;&lt;/b&gt;&lt;/h2&gt;" style="text;html=1;align=center;verticalAlign=middle;resizable=0;points=[];autosize=1;strokeColor=none;fillColor=none;" parent="1" vertex="1">
                    <mxGeometry x="150" y="18" width="490" height="70" as="geometry"/>
                </mxCell>
                <mxCell id="13" value="" style="endArrow=none;dashed=1;html=1;" parent="1" edge="1">
                    <mxGeometry width="50" height="50" relative="1" as="geometry">
                        <mxPoint x="200" y="163" as="sourcePoint"/>
                        <mxPoint x="270" y="163" as="targetPoint"/>
                    </mxGeometry>
                </mxCell>
                <mxCell id="16" value="" style="endArrow=none;dashed=1;html=1;" parent="1" edge="1">
                    <mxGeometry width="50" height="50" relative="1" as="geometry">
                        <mxPoint x="150" y="203" as="sourcePoint"/>
                        <mxPoint x="220" y="203" as="targetPoint"/>
                    </mxGeometry>
                </mxCell>
                <mxCell id="19" value="" style="endArrow=none;dashed=1;html=1;" parent="1" edge="1">
                    <mxGeometry width="50" height="50" relative="1" as="geometry">
                        <mxPoint x="235" y="203" as="sourcePoint"/>
                        <mxPoint x="305" y="203" as="targetPoint"/>
                    </mxGeometry>
                </mxCell>
                <mxCell id="20" value="" style="endArrow=none;dashed=1;html=1;" parent="1" edge="1">
                    <mxGeometry width="50" height="50" relative="1" as="geometry">
                        <mxPoint x="210" y="283" as="sourcePoint"/>
                        <mxPoint x="260" y="283" as="targetPoint"/>
                    </mxGeometry>
                </mxCell>
                <mxCell id="23" value="" style="endArrow=none;dashed=1;html=1;exitX=0.529;exitY=0.667;exitDx=0;exitDy=0;exitPerimeter=0;" parent="1" edge="1">
                    <mxGeometry width="50" height="50" relative="1" as="geometry">
                        <mxPoint x="310" y="203.01" as="sourcePoint"/>
                        <mxPoint x="378.47" y="203" as="targetPoint"/>
                    </mxGeometry>
                </mxCell>
                <mxCell id="28" value="correo_pasajero)" style="text;html=1;align=center;verticalAlign=middle;resizable=0;points=[];autosize=1;strokeColor=none;fillColor=none;" parent="1" vertex="1">
                    <mxGeometry x="660" y="263" width="110" height="30" as="geometry"/>
                </mxCell>
                <mxCell id="29" value="" style="endArrow=classic;html=1;exitX=0.314;exitY=0.97;exitDx=0;exitDy=0;exitPerimeter=0;" parent="1" edge="1" source="7">
                    <mxGeometry width="50" height="50" relative="1" as="geometry">
                        <mxPoint x="180" y="293" as="sourcePoint"/>
                        <mxPoint x="120" y="210" as="targetPoint"/>
                        <Array as="points">
                            <mxPoint x="245" y="303"/>
                            <mxPoint x="30" y="303"/>
                            <mxPoint x="30" y="223"/>
                            <mxPoint x="80" y="223"/>
                            <mxPoint x="120" y="223"/>
                        </Array>
                    </mxGeometry>
                </mxCell>
                <mxCell id="31" value="" style="endArrow=classic;html=1;exitX=0.219;exitY=0.9;exitDx=0;exitDy=0;exitPerimeter=0;entryX=0.199;entryY=0.898;entryDx=0;entryDy=0;entryPerimeter=0;" parent="1" target="6" edge="1">
                    <mxGeometry width="50" height="50" relative="1" as="geometry">
                        <mxPoint x="180.16" y="213.00000000000003" as="sourcePoint"/>
                        <mxPoint x="160" y="253" as="targetPoint"/>
                        <Array as="points">
                            <mxPoint x="180" y="223"/>
                            <mxPoint x="658" y="222"/>
                            <mxPoint x="658" y="263"/>
                            <mxPoint x="160" y="263"/>
                        </Array>
                    </mxGeometry>
                </mxCell>
                <mxCell id="32" value="" style="endArrow=classic;html=1;entryX=0.261;entryY=0.233;entryDx=0;entryDy=0;entryPerimeter=0;" parent="1" target="3" edge="1">
                    <mxGeometry width="50" height="50" relative="1" as="geometry">
                        <mxPoint x="350" y="190" as="sourcePoint"/>
                        <mxPoint x="160" y="100" as="targetPoint"/>
                        <Array as="points">
                            <mxPoint x="350" y="180"/>
                            <mxPoint x="640" y="180"/>
                            <mxPoint x="640" y="90"/>
                            <mxPoint x="160" y="90"/>
                        </Array>
                    </mxGeometry>
                </mxCell>
                <mxCell id="33" value="" style="endArrow=classic;html=1;exitX=0.364;exitY=0.233;exitDx=0;exitDy=0;exitPerimeter=0;" parent="1" source="4" edge="1">
                    <mxGeometry width="50" height="50" relative="1" as="geometry">
                        <mxPoint x="210" y="180" as="sourcePoint"/>
                        <mxPoint x="150" y="130" as="targetPoint"/>
                        <Array as="points">
                            <mxPoint x="240" y="140"/>
                            <mxPoint x="150" y="140"/>
                        </Array>
                    </mxGeometry>
                </mxCell>
                <mxCell id="34" value="" style="endArrow=classic;html=1;entryX=0.218;entryY=0.9;entryDx=0;entryDy=0;entryPerimeter=0;exitX=0.375;exitY=0.233;exitDx=0;exitDy=0;exitPerimeter=0;" parent="1" target="4" edge="1">
                    <mxGeometry width="50" height="50" relative="1" as="geometry">
                        <mxPoint x="280" y="192.99" as="sourcePoint"/>
                        <mxPoint x="159.9" y="173" as="targetPoint"/>
                        <Array as="points">
                            <mxPoint x="280" y="183"/>
                            <mxPoint x="160" y="183"/>
                        </Array>
                    </mxGeometry>
                </mxCell>
                <mxCell id="35" value="" style="endArrow=none;dashed=1;html=1;entryX=0.427;entryY=0.731;entryDx=0;entryDy=0;entryPerimeter=0;" edge="1" parent="1" target="6">
                    <mxGeometry width="50" height="50" relative="1" as="geometry">
                        <mxPoint x="222" y="244" as="sourcePoint"/>
                        <mxPoint x="272" y="244" as="targetPoint"/>
                    </mxGeometry>
                </mxCell>
                <mxCell id="37" value="" style="endArrow=classic;html=1;exitX=0.371;exitY=1.008;exitDx=0;exitDy=0;exitPerimeter=0;entryX=0.244;entryY=0.06;entryDx=0;entryDy=0;entryPerimeter=0;" edge="1" parent="1" source="6" target="3">
                    <mxGeometry width="50" height="50" relative="1" as="geometry">
                        <mxPoint x="335" y="196" as="sourcePoint"/>
                        <mxPoint x="385" y="146" as="targetPoint"/>
                        <Array as="points">
                            <mxPoint x="259" y="260"/>
                            <mxPoint x="734" y="259"/>
                            <mxPoint x="733" y="77"/>
                            <mxPoint x="152" y="77"/>
                        </Array>
                    </mxGeometry>
                </mxCell>
            </root>
        </mxGraphModel>
    </diagram>
</mxfile>